# xmcd CD database file
#
# Track frame offsets:
#	183
#	11918
#	24273
#	37533
#	48900
#	59718
#	72338
#	85233
#	99298
#	113685
#	126163
#	139158
#	151023
#	162373
#	176733
#	189268
#	200958
#	212323
#
# Disc length: 2993 seconds
#
# Revision: 2
# Processed by: cddbd v1.4b41PL1 Copyright (c) Steve Scherf et al.
# Submitted via: Feurio! 1.60 - http://www.feurio.com
#
DISCID=eb0baf12,fd0baf12
DTITLE=Various Artist - Die Spitzenreiter 1957
DYEAR=1900
DGENRE=
TTITLE0=Catarina Valente - Tipitipitipso
TTITLE1=Frank Forster - Mi casa, su casa
TTITLE2=Alice Babs - Mama ist aus Cuba
TTITLE3=Lolita - Der weisse Mond von Maratonga
TTITLE4=Freddy Quinn - Einmal in Tampico
TTITLE5=Margot Eskens - Cindy, oh Cindy
TTITLE6=Friedel Hensch und die Cyprys - Solang die Sterne glüh´n
TTITLE7=Leo Leandros und die Original Calypso-Stars - Komm´ Mr. Tallimann
TTITLE8=Catarina Valente - Wo meine Sonne scheint
TTITLE9=Peter Alexander - Das tu ich alles nur aus Liebe
TTITLE10=Inge Brück - Peter, komm heut abend zum Hafen
TTITLE11=Bibi Johns - Aber nachts an der Bar
TTITLE12=Die Montecarlos - Warum strahlen heut Nacht die Sterne so hell
TTITLE13=Nana Gualdi - Oh
TTITLE14=Freddy Quinn - Heimatlos
TTITLE15=Ernie Bieler and Jörg Maria Berg - Sieben Berge - sieben Täler
TTITLE16=Geschwister Fahrnberger - Es läuten die Glocken am Königssee
TTITLE17=Werner Overheidt - Ich sage dir Adieu
EXTD=
EXTT0=
EXTT1=
EXTT2=
EXTT3=
EXTT4=
EXTT5=
EXTT6=
EXTT7=
EXTT8=
EXTT9=
EXTT10=
EXTT11=
EXTT12=
EXTT13=
EXTT14=
EXTT15=
EXTT16=
EXTT17=
PLAYORDER=
